<svg width="464" height="69" viewBox="0 0 464 69" fill="none" xmlns="http://www.w3.org/2000/svg">
<path d="M106.452 36.5677C105.863 30.6989 105.843 20.3828 110.041 20.3828C115.541 20.3828 122.394 25.5219 183.717 12.7023C216.041 4.88275 283.041 -12.1173 333.041 16.3827C324.541 15.8827 308.541 8.38281 292.041 8.38281C272.041 8.38281 242.364 5.0219 213.041 12.7023C181.041 20.3828 151.18 32.4731 111.86 26.4279C110.617 30.8395 108.467 34.6139 107.14 36.5554L256.041 33.8828V39.8828L0.0408936 42.3828L61.0409 37.3828L106.452 36.5677Z" fill="#D9D9D9"/>
<path d="M106.452 36.5677C105.863 30.6989 105.843 20.3828 110.041 20.3828C115.541 20.3828 122.394 25.5219 183.717 12.7023C216.041 4.88275 283.041 -12.1173 333.041 16.3827C324.541 15.8827 308.541 8.38281 292.041 8.38281C272.041 8.38281 242.364 5.0219 213.041 12.7023C181.041 20.3828 151.18 32.4731 111.86 26.4279C110.617 30.8395 108.467 34.6139 107.14 36.5554L256.041 33.8828V39.8828L0.0408936 42.3828L61.0409 37.3828L106.452 36.5677Z" fill="black"/>
<path d="M293.86 27.3377C259.316 28.0655 230.254 24.0044 220.041 21.8828C231.041 30.0793 272.041 32.8828 348.541 33.8828C436.041 35.3828 444.541 47.8828 463.541 56.3828C423.541 19.8828 337.041 26.4279 293.86 27.3377Z" fill="#D9D9D9"/>
<path d="M293.86 27.3377C259.316 28.0655 230.254 24.0044 220.041 21.8828C231.041 30.0793 272.041 32.8828 348.541 33.8828C436.041 35.3828 444.541 47.8828 463.541 56.3828C423.541 19.8828 337.041 26.4279 293.86 27.3377Z" fill="black"/>
<path d="M289.541 53.8828H20.5409L75.0409 50.8828L289.541 48.3828V53.8828Z" fill="#D9D9D9"/>
<path d="M289.541 53.8828H20.5409L75.0409 50.8828L289.541 48.3828V53.8828Z" fill="black"/>
<path d="M447.541 67.8828H140.541V63.8828H152.541C236.041 63.7161 410.041 63.4828 438.041 63.8828C428.541 54.8828 414.541 53.8828 398.041 48.3828C425.641 48.3828 442.541 61.3828 447.541 67.8828Z" fill="#D9D9D9"/>
<path d="M447.541 67.8828H140.541V63.8828H152.541C236.041 63.7161 410.041 63.4828 438.041 63.8828C428.541 54.8828 414.541 53.8828 398.041 48.3828C425.641 48.3828 442.541 61.3828 447.541 67.8828Z" fill="black"/>
<path d="M106.541 37.3828C105.874 31.7161 105.641 20.3828 110.041 20.3828C115.541 20.3828 122.394 25.5219 183.717 12.7023C216.041 4.88275 283.041 -12.1173 333.041 16.3827C324.541 15.8827 308.541 8.38281 292.041 8.38281C272.041 8.38281 242.364 5.0219 213.041 12.7023C181.041 20.3828 151.18 32.4731 111.86 26.4279C110.405 31.5918 107.708 35.8828 106.541 37.3828ZM220.041 21.8828C230.254 24.0044 259.316 28.0655 293.86 27.3377C337.041 26.4279 423.541 19.8828 463.541 56.3828C444.541 47.8828 436.041 35.3828 348.541 33.8828C272.041 32.8828 231.041 30.0793 220.041 21.8828ZM0.0408936 42.3828L256.041 39.8828V33.8828L61.0409 37.3828L0.0408936 42.3828ZM20.5409 53.8828H289.541V48.3828L75.0409 50.8828L20.5409 53.8828ZM140.541 67.8828H447.541C442.541 61.3828 425.641 48.3828 398.041 48.3828C414.541 53.8828 428.541 54.8828 438.041 63.8828C410.041 63.4828 236.041 63.7161 152.541 63.8828H140.541V67.8828Z" stroke="black"/>
</svg>
